<mxfile host="app.diagrams.net" agent="Mozilla/5.0 (Macintosh; Intel Mac OS X 10_15_7) AppleWebKit/537.36 (KHTML, like Gecko) Chrome/127.0.0.0 Safari/537.36" version="24.7.6">
  <diagram id="C5RBs43oDa-KdzZeNtuy" name="Page-1">
    <mxGraphModel dx="855" dy="612" grid="1" gridSize="10" guides="1" tooltips="1" connect="1" arrows="1" fold="1" page="1" pageScale="1" pageWidth="827" pageHeight="1169" background="#FFFFFF" math="0" shadow="0">
      <root>
        <mxCell id="WIyWlLk6GJQsqaUBKTNV-0" />
        <mxCell id="WIyWlLk6GJQsqaUBKTNV-1" parent="WIyWlLk6GJQsqaUBKTNV-0" />
        <mxCell id="MEJdEYd6LuWDyWkc2QXS-3" value="llama 3.1_Instruct&lt;div&gt;&lt;font style=&quot;font-size: 10px;&quot;&gt;(fine_tuning)&lt;/font&gt;&lt;/div&gt;" style="rounded=0;whiteSpace=wrap;html=1;fontStyle=1" vertex="1" parent="WIyWlLk6GJQsqaUBKTNV-1">
          <mxGeometry x="177" y="210" width="120" height="60" as="geometry" />
        </mxCell>
        <mxCell id="MEJdEYd6LuWDyWkc2QXS-4" value="&lt;b&gt;NAVER SHOP&lt;/b&gt;" style="ellipse;whiteSpace=wrap;html=1;" vertex="1" parent="WIyWlLk6GJQsqaUBKTNV-1">
          <mxGeometry x="361" y="40.99" width="106" height="60" as="geometry" />
        </mxCell>
        <mxCell id="MEJdEYd6LuWDyWkc2QXS-6" value="" style="shape=image;verticalLabelPosition=bottom;labelBackgroundColor=default;verticalAlign=top;aspect=fixed;imageAspect=0;image=https://d1.awsstatic.com/acs/characters/Logos/Docker-Logo_Horizontel_279x131.b8a5c41e56b77706656d61080f6a0217a3ba356d.png;clipPath=inset(1.15% 24.19% 8.02% 22.4%);" vertex="1" parent="WIyWlLk6GJQsqaUBKTNV-1">
          <mxGeometry x="190" y="32.46" width="94" height="75.07" as="geometry" />
        </mxCell>
        <mxCell id="MEJdEYd6LuWDyWkc2QXS-8" value="" style="endArrow=classic;html=1;rounded=0;exitX=0.023;exitY=0.645;exitDx=0;exitDy=0;entryX=0.964;entryY=0.639;entryDx=0;entryDy=0;entryPerimeter=0;exitPerimeter=0;" edge="1" parent="WIyWlLk6GJQsqaUBKTNV-1" source="MEJdEYd6LuWDyWkc2QXS-4" target="MEJdEYd6LuWDyWkc2QXS-6">
          <mxGeometry width="50" height="50" relative="1" as="geometry">
            <mxPoint x="354.00000000000205" y="80" as="sourcePoint" />
            <mxPoint x="284" y="79.995" as="targetPoint" />
          </mxGeometry>
        </mxCell>
        <mxCell id="MEJdEYd6LuWDyWkc2QXS-10" value="data" style="edgeLabel;html=1;align=center;verticalAlign=middle;resizable=0;points=[];fontStyle=1" vertex="1" connectable="0" parent="MEJdEYd6LuWDyWkc2QXS-8">
          <mxGeometry x="-0.276" y="-1" relative="1" as="geometry">
            <mxPoint x="-16" as="offset" />
          </mxGeometry>
        </mxCell>
        <mxCell id="MEJdEYd6LuWDyWkc2QXS-9" value="" style="endArrow=classic;html=1;rounded=0;exitX=0;exitY=0.5;exitDx=0;exitDy=0;entryX=0.018;entryY=0.312;entryDx=0;entryDy=0;entryPerimeter=0;" edge="1" parent="WIyWlLk6GJQsqaUBKTNV-1" target="MEJdEYd6LuWDyWkc2QXS-4">
          <mxGeometry width="50" height="50" relative="1" as="geometry">
            <mxPoint x="278.00000000000205" y="60" as="sourcePoint" />
            <mxPoint x="354" y="60" as="targetPoint" />
          </mxGeometry>
        </mxCell>
        <mxCell id="MEJdEYd6LuWDyWkc2QXS-11" value="crawling" style="edgeLabel;html=1;align=center;verticalAlign=middle;resizable=0;points=[];fontStyle=1" vertex="1" connectable="0" parent="WIyWlLk6GJQsqaUBKTNV-1">
          <mxGeometry x="338.998880584922" y="88.15394124778175" as="geometry">
            <mxPoint x="-21" y="-29" as="offset" />
          </mxGeometry>
        </mxCell>
        <mxCell id="MEJdEYd6LuWDyWkc2QXS-12" value="" style="endArrow=classic;html=1;rounded=0;exitX=0.5;exitY=1;exitDx=0;exitDy=0;" edge="1" parent="WIyWlLk6GJQsqaUBKTNV-1">
          <mxGeometry width="50" height="50" relative="1" as="geometry">
            <mxPoint x="210" y="107.52999999999997" as="sourcePoint" />
            <mxPoint x="210" y="210" as="targetPoint" />
            <Array as="points">
              <mxPoint x="210" y="210" />
            </Array>
          </mxGeometry>
        </mxCell>
        <mxCell id="MEJdEYd6LuWDyWkc2QXS-15" value="OCR" style="edgeLabel;html=1;align=center;verticalAlign=middle;resizable=0;points=[];fontStyle=1" vertex="1" connectable="0" parent="MEJdEYd6LuWDyWkc2QXS-12">
          <mxGeometry x="-0.0812" relative="1" as="geometry">
            <mxPoint y="2" as="offset" />
          </mxGeometry>
        </mxCell>
        <mxCell id="MEJdEYd6LuWDyWkc2QXS-14" value="" style="endArrow=classic;html=1;rounded=0;exitX=0.5;exitY=1;exitDx=0;exitDy=0;" edge="1" parent="WIyWlLk6GJQsqaUBKTNV-1">
          <mxGeometry width="50" height="50" relative="1" as="geometry">
            <mxPoint x="260" y="107.52999999999997" as="sourcePoint" />
            <mxPoint x="260" y="210" as="targetPoint" />
            <Array as="points">
              <mxPoint x="260" y="210" />
            </Array>
          </mxGeometry>
        </mxCell>
        <mxCell id="MEJdEYd6LuWDyWkc2QXS-16" value="Review" style="edgeLabel;html=1;align=center;verticalAlign=middle;resizable=0;points=[];fontStyle=1" vertex="1" connectable="0" parent="MEJdEYd6LuWDyWkc2QXS-14">
          <mxGeometry x="-0.1187" relative="1" as="geometry">
            <mxPoint y="5" as="offset" />
          </mxGeometry>
        </mxCell>
        <mxCell id="MEJdEYd6LuWDyWkc2QXS-22" value="top 30 Aspect" style="rhombus;whiteSpace=wrap;html=1;fontStyle=1" vertex="1" parent="WIyWlLk6GJQsqaUBKTNV-1">
          <mxGeometry x="187.5" y="310" width="99" height="60" as="geometry" />
        </mxCell>
        <mxCell id="MEJdEYd6LuWDyWkc2QXS-23" value="&lt;b style=&quot;font-size: 11px;&quot;&gt;Domain Aspect List&lt;/b&gt;" style="curved=1;endArrow=classic;html=1;rounded=0;exitX=0;exitY=0.5;exitDx=0;exitDy=0;entryX=-0.001;entryY=0.431;entryDx=0;entryDy=0;entryPerimeter=0;strokeWidth=1;fontSize=11;" edge="1" parent="WIyWlLk6GJQsqaUBKTNV-1" source="MEJdEYd6LuWDyWkc2QXS-22" target="MEJdEYd6LuWDyWkc2QXS-3">
          <mxGeometry x="0.0556" y="4" width="50" height="50" relative="1" as="geometry">
            <mxPoint x="270" y="280" as="sourcePoint" />
            <mxPoint x="320" y="230" as="targetPoint" />
            <Array as="points">
              <mxPoint x="110" y="340" />
              <mxPoint x="100" y="250" />
            </Array>
            <mxPoint as="offset" />
          </mxGeometry>
        </mxCell>
        <mxCell id="MEJdEYd6LuWDyWkc2QXS-24" value="" style="endArrow=classic;html=1;rounded=0;exitX=0.5;exitY=1;exitDx=0;exitDy=0;entryX=0.5;entryY=0;entryDx=0;entryDy=0;" edge="1" parent="WIyWlLk6GJQsqaUBKTNV-1" source="MEJdEYd6LuWDyWkc2QXS-3" target="MEJdEYd6LuWDyWkc2QXS-22">
          <mxGeometry width="50" height="50" relative="1" as="geometry">
            <mxPoint x="270" y="280" as="sourcePoint" />
            <mxPoint x="320" y="230" as="targetPoint" />
          </mxGeometry>
        </mxCell>
        <mxCell id="MEJdEYd6LuWDyWkc2QXS-25" value="Inference" style="edgeLabel;html=1;align=center;verticalAlign=middle;resizable=0;points=[];fontStyle=1" vertex="1" connectable="0" parent="MEJdEYd6LuWDyWkc2QXS-24">
          <mxGeometry x="-0.0499" relative="1" as="geometry">
            <mxPoint as="offset" />
          </mxGeometry>
        </mxCell>
        <mxCell id="MEJdEYd6LuWDyWkc2QXS-26" value="" style="endArrow=classic;html=1;rounded=0;entryX=0.523;entryY=0.5;entryDx=0;entryDy=0;entryPerimeter=0;" edge="1" parent="WIyWlLk6GJQsqaUBKTNV-1" target="MEJdEYd6LuWDyWkc2QXS-52">
          <mxGeometry width="50" height="50" relative="1" as="geometry">
            <mxPoint x="297" y="240" as="sourcePoint" />
            <mxPoint x="400" y="240" as="targetPoint" />
          </mxGeometry>
        </mxCell>
        <mxCell id="MEJdEYd6LuWDyWkc2QXS-27" value="Pseudo&lt;div&gt;Labeling&lt;/div&gt;" style="edgeLabel;html=1;align=center;verticalAlign=middle;resizable=0;points=[];fontStyle=1" vertex="1" connectable="0" parent="MEJdEYd6LuWDyWkc2QXS-26">
          <mxGeometry x="-0.1928" y="-1" relative="1" as="geometry">
            <mxPoint x="11" y="-1" as="offset" />
          </mxGeometry>
        </mxCell>
        <mxCell id="MEJdEYd6LuWDyWkc2QXS-52" value="" style="strokeWidth=1;html=1;shape=mxgraph.flowchart.annotation_2;align=left;labelPosition=right;pointerEvents=1;" vertex="1" parent="WIyWlLk6GJQsqaUBKTNV-1">
          <mxGeometry x="389" y="210" width="51" height="60" as="geometry" />
        </mxCell>
        <mxCell id="MEJdEYd6LuWDyWkc2QXS-54" value="Aspect" style="text;html=1;align=left;verticalAlign=middle;whiteSpace=wrap;rounded=0;fontSize=11;" vertex="1" parent="WIyWlLk6GJQsqaUBKTNV-1">
          <mxGeometry x="464" y="191.5" width="60" height="30" as="geometry" />
        </mxCell>
        <mxCell id="MEJdEYd6LuWDyWkc2QXS-55" value="Aspect_Score" style="text;html=1;align=center;verticalAlign=middle;whiteSpace=wrap;rounded=0;fontSize=11;" vertex="1" parent="WIyWlLk6GJQsqaUBKTNV-1">
          <mxGeometry x="457" y="213.5" width="60" height="30" as="geometry" />
        </mxCell>
        <mxCell id="MEJdEYd6LuWDyWkc2QXS-56" value="Sentiment" style="text;html=1;align=left;verticalAlign=middle;whiteSpace=wrap;rounded=0;fontSize=11;" vertex="1" parent="WIyWlLk6GJQsqaUBKTNV-1">
          <mxGeometry x="460" y="235" width="60" height="30" as="geometry" />
        </mxCell>
        <mxCell id="MEJdEYd6LuWDyWkc2QXS-57" value="Sentiment_Score" style="text;html=1;align=left;verticalAlign=middle;whiteSpace=wrap;rounded=0;fontSize=11;" vertex="1" parent="WIyWlLk6GJQsqaUBKTNV-1">
          <mxGeometry x="440" y="253.5" width="60" height="30" as="geometry" />
        </mxCell>
        <mxCell id="MEJdEYd6LuWDyWkc2QXS-58" value="" style="endArrow=none;html=1;rounded=0;exitX=0.529;exitY=0.317;exitDx=0;exitDy=0;exitPerimeter=0;" edge="1" parent="WIyWlLk6GJQsqaUBKTNV-1">
          <mxGeometry width="50" height="50" relative="1" as="geometry">
            <mxPoint x="414.44999999999993" y="229.0200000000001" as="sourcePoint" />
            <mxPoint x="440" y="229" as="targetPoint" />
            <Array as="points">
              <mxPoint x="429" y="229" />
            </Array>
          </mxGeometry>
        </mxCell>
        <mxCell id="MEJdEYd6LuWDyWkc2QXS-59" value="" style="endArrow=none;html=1;rounded=0;exitX=0.529;exitY=0.317;exitDx=0;exitDy=0;exitPerimeter=0;entryX=0.989;entryY=0.688;entryDx=0;entryDy=0;entryPerimeter=0;" edge="1" parent="WIyWlLk6GJQsqaUBKTNV-1" target="MEJdEYd6LuWDyWkc2QXS-52">
          <mxGeometry width="50" height="50" relative="1" as="geometry">
            <mxPoint x="414" y="251.21" as="sourcePoint" />
            <mxPoint x="440" y="250" as="targetPoint" />
          </mxGeometry>
        </mxCell>
        <mxCell id="MEJdEYd6LuWDyWkc2QXS-60" value="" style="strokeWidth=1;html=1;shape=mxgraph.flowchart.annotation_2;align=left;labelPosition=right;pointerEvents=1;rotation=-180;" vertex="1" parent="WIyWlLk6GJQsqaUBKTNV-1">
          <mxGeometry x="529" y="210" width="51" height="60" as="geometry" />
        </mxCell>
        <mxCell id="MEJdEYd6LuWDyWkc2QXS-61" value="" style="endArrow=none;html=1;rounded=0;exitX=0.529;exitY=0.317;exitDx=0;exitDy=0;exitPerimeter=0;" edge="1" parent="WIyWlLk6GJQsqaUBKTNV-1">
          <mxGeometry width="50" height="50" relative="1" as="geometry">
            <mxPoint x="529.4499999999999" y="229.0200000000001" as="sourcePoint" />
            <mxPoint x="555" y="229" as="targetPoint" />
            <Array as="points">
              <mxPoint x="544" y="229" />
            </Array>
          </mxGeometry>
        </mxCell>
        <mxCell id="MEJdEYd6LuWDyWkc2QXS-62" value="" style="endArrow=none;html=1;rounded=0;entryX=-0.001;entryY=0.547;entryDx=0;entryDy=0;exitX=0.529;exitY=0.317;exitDx=0;exitDy=0;exitPerimeter=0;entryPerimeter=0;" edge="1" parent="WIyWlLk6GJQsqaUBKTNV-1">
          <mxGeometry width="50" height="50" relative="1" as="geometry">
            <mxPoint x="529" y="251.21000000000004" as="sourcePoint" />
            <mxPoint x="555" y="251" as="targetPoint" />
          </mxGeometry>
        </mxCell>
        <mxCell id="MEJdEYd6LuWDyWkc2QXS-64" value="" style="endArrow=classic;html=1;rounded=0;exitX=0.498;exitY=0.5;exitDx=0;exitDy=0;exitPerimeter=0;" edge="1" parent="WIyWlLk6GJQsqaUBKTNV-1" source="MEJdEYd6LuWDyWkc2QXS-60">
          <mxGeometry width="50" height="50" relative="1" as="geometry">
            <mxPoint x="540" y="260" as="sourcePoint" />
            <mxPoint x="590" y="240" as="targetPoint" />
          </mxGeometry>
        </mxCell>
        <mxCell id="MEJdEYd6LuWDyWkc2QXS-65" value="&lt;font style=&quot;font-size: 11px;&quot;&gt;ABSA model&lt;/font&gt;&lt;div style=&quot;&quot;&gt;&lt;font style=&quot;font-size: 9px;&quot;&gt;(klue_Bert)&lt;/font&gt;&lt;/div&gt;" style="ellipse;whiteSpace=wrap;html=1;fontStyle=1" vertex="1" parent="WIyWlLk6GJQsqaUBKTNV-1">
          <mxGeometry x="590" y="215.75" width="90" height="48.5" as="geometry" />
        </mxCell>
      </root>
    </mxGraphModel>
  </diagram>
</mxfile>
